#!OML:ASF E:\Steps\Project 1\Capture day 1\Session 2\Subject.ASF
:FULLY-SPECIFIED
:DEGREES
175
root 9.27339 16.2985 19.7438 -152.516 -2.55011 179.694
lowerback -31.65 -1.98958 -5.64158
upperback -3.33932 -1.79441 0.0192847
thorax 12.8259 -1.57256 2.24592
lowerneck -5.44847 -5.2747 6.50658
upperneck 2.38586 -7.36589 -9.45787
head 1.09403 -3.87996 -4.45264
rclavicle -2.5345e-015 1.19271e-015
rhumerus -34.7534 -21.7041 -79.2204
rradius 25.5351
rwrist 3.72568
rhand -8.93094 -50.6439
rfingers 7.12502
rthumb 17.0129 -79.9188
lclavicle -2.5345e-015 1.19271e-015
lhumerus -28.064 9.40847 81.8218
lradius 15.3319
lwrist -13.2156
lhand -21.7952 -12.7396
lfingers 7.12502
lthumb 4.60657 17.1904
rfemur -24.0199 8.47723 17.4663
rtibia 7.21032
rfoot -19.2142 -6.0935
rtoes -31.1265
lfemur -25.1391 -10.7424 -16.5977
ltibia 8.05709
lfoot -7.93918 1.67868
ltoes -31.8971
176
root 9.27311 16.2996 19.7456 -152.522 -2.59131 179.722
lowerback -31.6099 -1.99053 -5.61219
upperback -3.34671 -1.80942 0.0373483
thorax 12.8024 -1.57706 2.24517
lowerneck -5.49789 -5.29757 6.59963
upperneck 2.38618 -7.40663 -9.56505
head 1.09211 -3.904 -4.51147
rclavicle 3.926e-015 -3.57812e-015
rhumerus -34.7296 -21.7283 -79.2221
rradius 25.5056
rwrist 3.78848
rhand -9.14368 -50.6651
rfingers 7.12502
rthumb 16.8081 -79.9576
lclavicle 3.926e-015 -3.57812e-015
lhumerus -28.038 9.32749 81.8723
lradius 15.3096
lwrist -13.1188
lhand -21.6437 -12.9119
lfingers 7.12502
lthumb 4.75285 17.0148
rfemur -24.034 8.5364 17.4843
rtibia 7.22989
rfoot -19.1651 -6.15703
rtoes -30.765
lfemur -25.1454 -10.7606 -16.553
ltibia 8.05639
lfoot -7.88262 1.68876
ltoes -32.202
177
root 9.27227 16.3007 19.7461 -152.588 -2.65325 179.721
lowerback -31.4789 -1.9863 -5.5482
upperback -3.37108 -1.82887 0.00345809
thorax 12.7186 -1.57975 2.17122
lowerneck -5.51154 -5.32462 6.72916
upperneck 2.39426 -7.45229 -9.6848
head 1.08384 -3.92936 -4.58058
rclavicle -4.22417e-015 -1.66979e-014
rhumerus -34.8281 -21.8378 -79.2009
rradius 25.4955
rwrist 3.95031
rhand -9.24816 -50.5387
rfingers 7.12502
rthumb 16.7075 -79.8397
lclavicle -4.22417e-015 -1.66979e-014
lhumerus -28.093 9.43797 81.7803
lradius 15.2755
lwrist -13.2375
lhand -21.4976 -12.9117
lfingers 7.12502
lthumb 4.89385 17.0117
rfemur -23.9363 8.51479 17.4945
rtibia 7.16267
rfoot -19.1373 -6.09648
rtoes -29.7832
lfemur -25.0792 -10.7447 -16.5851
ltibia 8.04661
lfoot -7.87359 1.6536
ltoes -32.9123
178
root 9.27173 16.3018 19.7468 -152.624 -2.68376 179.699
lowerback -31.3788 -1.97507 -5.51197
upperback -3.40608 -1.82972 -0.0552874
thorax 12.6333 -1.57689 2.09165
lowerneck -5.51957 -5.34998 6.8742
upperneck 2.4004 -7.4964 -9.81183
head 1.07306 -3.95377 -4.65519
rclavicle -6.21202e-015 5.96354e-015
rhumerus -34.9373 -21.9897 -79.1843
rradius 25.444
rwrist 4.12203
rhand -9.35717 -50.6
rfingers 7.12502
rthumb 16.6026 -79.9098
lclavicle -6.21202e-015 5.96354e-015
lhumerus -28.195 9.55742 81.6554
lradius 15.2759
lwrist -13.414
lhand -21.4692 -12.8012
lfingers 7.12502
lthumb 4.92126 17.1216
rfemur -23.9076 8.37985 17.4993
rtibia 7.18786
rfoot -19.1654 -5.93063
rtoes -29.261
lfemur -25.0593 -10.7416 -16.6255
ltibia 8.0849
lfoot -7.91263 1.64738
ltoes -33.0625
179
root 9.27225 16.3021 19.7483 -152.584 -2.67049 179.699
lowerback -31.4815 -1.98774 -5.56791
upperback -3.36614 -1.81886 -0.0322165
thorax 12.7232 -1.57572 2.14711
lowerneck -5.62858 -5.35333 6.93555
upperneck 2.39479 -7.51365 -9.90471
head 1.08372 -3.96778 -4.70578
rclavicle 2.88238e-015 -2.38542e-015
rhumerus -34.8503 -21.9774 -79.2135
rradius 25.4284
rwrist 4.07841
rhand -9.50286 -50.9617
rfingers 7.12502
rthumb 16.4623 -80.2832
lclavicle 2.88238e-015 -2.38542e-015
lhumerus -28.1317 9.62102 81.6819
lradius 15.254
lwrist -13.4799
lhand -21.4755 -12.9185
lfingers 7.12502
lthumb 4.91522 17.0045
rfemur -23.963 8.23042 17.5338
rtibia 7.19013
rfoot -19.1422 -5.84022
rtoes -30.1774
lfemur -25.119 -10.7831 -16.5912
ltibia 8.1157
lfoot -7.87613 1.66435
ltoes -32.2225
180
root 9.27283 16.3018 19.7501 -152.501 -2.66394 179.707
lowerback -31.6976 -2.03312 -5.66094
upperback -3.27895 -1.83148 0.0516436
thorax 12.9201 -1.58846 2.27484
lowerneck -5.75563 -5.34725 6.88594
upperneck 2.48995 -7.49868 -10.2958
head 1.01505 -3.98279 -4.35401
rclavicle 1.00386e-014 -1.74931e-014
rhumerus -34.6789 -21.7271 -79.2927
rradius 25.5045
rwrist 3.79413
rhand -9.64184 -51.2076
rfingers 7.12502
rthumb 16.3285 -80.5402
lclavicle 1.00386e-014 -1.74931e-014
lhumerus -27.9252 9.73502 81.7953
lradius 15.1455
lwrist -13.5119
lhand -21.5335 -13.0723
lfingers 7.12502
lthumb 4.85925 16.852
rfemur -24.0504 8.25341 17.5318
rtibia 7.15594
rfoot -19.1077 -5.88719
rtoes -30.3842
lfemur -25.2259 -10.8214 -16.535
ltibia 8.11535
lfoot -7.82597 1.66917
ltoes -31.4042
181
root 9.27331 16.301 19.7517 -152.434 -2.66833 179.713
lowerback -31.7737 -2.0398 -5.66295
upperback -3.28708 -1.84122 0.0554913
thorax 12.9437 -1.59565 2.27348
lowerneck -5.79685 -5.35639 7.00463
upperneck 2.46277 -7.52481 -10.4247
head 1.0021 -3.99983 -4.41281
rclavicle -5.51627e-015 2.5842e-014
rhumerus -34.695 -21.5789 -79.3725
rradius 25.5588
rwrist 3.62295
rhand -9.85229 -51.4247
rfingers 7.12502
rthumb 16.1259 -80.7738
lclavicle -5.51627e-015 2.5842e-014
lhumerus -27.9133 9.56378 81.8619
lradius 15.1464
lwrist -13.3509
lhand -21.673 -13.0138
lfingers 7.12502
lthumb 4.72453 16.9136
rfemur -24.1742 8.29851 17.5181
rtibia 7.24106
rfoot -19.1628 -5.91937
rtoes -29.994
lfemur -25.3306 -10.7844 -16.5156
ltibia 8.12748
lfoot -7.83308 1.65385
ltoes -31.5892
182
root 9.27388 16.3006 19.7527 -152.429 -2.67684 179.696
lowerback -31.7189 -2.03038 -5.63728
upperback -3.33327 -1.84479 0.00866223
thorax 12.8653 -1.59646 2.20962
lowerneck -5.83023 -5.37267 7.16682
upperneck 2.47361 -7.55896 -10.5665
head 0.996052 -4.02028 -4.48303
rclavicle -8.99501e-015 -1.63003e-014
rhumerus -34.7622 -21.7898 -79.3342
rradius 25.4494
rwrist 3.87394
rhand -9.80706 -51.0652
rfingers 7.12502
rthumb 16.1694 -80.4107
lclavicle -8.99501e-015 -1.63003e-014
lhumerus -28.0432 9.22134 81.901
lradius 15.2763
lwrist -13.0446
lhand -21.7196 -12.9646
lfingers 7.12502
lthumb 4.67949 16.9637
rfemur -24.2125 8.26196 17.5103
rtibia 7.31729
rfoot -19.2466 -5.92274
rtoes -30.1635
lfemur -25.3553 -10.7287 -16.5512
ltibia 8.14184
lfoot -7.86248 1.60425
ltoes -31.8826
183
root 9.27481 16.3011 19.7539 -152.445 -2.68829 179.687
lowerback -31.6868 -2.04069 -5.65217
upperback -3.33271 -1.85381 0.0145415
thorax 12.8536 -1.60036 2.22149
lowerneck -5.89639 -5.38362 7.25073
upperneck 2.46058 -7.58686 -10.6941
head 0.992435 -4.03976 -4.53721
rclavicle 1.78409e-014 6.36111e-015
rhumerus -34.7539 -22.0121 -79.2211
rradius 25.3354
rwrist 4.17551
rhand -9.47542 -50.4313
rfingers 7.12502
rthumb 16.4888 -79.7507
lclavicle 1.78409e-014 6.36111e-015
lhumerus -28.0789 9.07585 81.9765
lradius 15.3606
lwrist -12.8127
lhand -21.694 -12.9773
lfingers 7.12502
lthumb 4.70422 16.9505
rfemur -24.1609 8.35448 17.4705
rtibia 7.26254
rfoot -19.2687 -5.93986
rtoes -29.6696
lfemur -25.3547 -10.6976 -16.5666
ltibia 8.18386
lfoot -7.89161 1.55598
ltoes -31.7948
184
root 9.27572 16.3014 19.7552 -152.451 -2.70713 179.708
lowerback -31.6698 -2.04807 -5.64116
upperback -3.3236 -1.86757 0.039124
thorax 12.8591 -1.60519 2.23729
lowerneck -5.96023 -5.39519 7.27821
upperneck 2.46012 -7.61121 -10.7879
head 0.995877 -4.05734 -4.5724
rclavicle -6.55989e-015 -2.26615e-014
rhumerus -34.7169 -21.8781 -79.26
rradius 25.3472
rwrist 4.07672
rhand -9.32954 -50.6517
rfingers 7.12502
rthumb 16.6292 -79.9593
lclavicle -6.55989e-015 -2.26615e-014
lhumerus -28.0398 9.257 81.9852
lradius 15.3043
lwrist -12.985
lhand -21.8617 -12.9286
lfingers 7.12502
lthumb 4.54234 17.0027
rfemur -24.1269 8.48334 17.4538
rtibia 7.20002
rfoot -19.2092 -5.96103
rtoes -29.0067
lfemur -25.3672 -10.7328 -16.5074
ltibia 8.218
lfoot -7.90152 1.5567
ltoes -31.2662
185
root 9.27612 16.3013 19.7562 -152.471 -2.71568 179.715
lowerback -31.6422 -2.05342 -5.64244
upperback -3.31104 -1.87262 0.0526064
thorax 12.863 -1.60616 2.25152
lowerneck -6.02708 -5.40805 7.32039
upperneck 2.46522 -7.63783 -10.8859
head 1.00047 -4.07606 -4.61147
rclavicle -1.14301e-015 5.1684e-015
rhumerus -34.6793 -21.7542 -79.3171
rradius 25.3503
rwrist 3.93753
rhand -9.34985 -50.9304
rfingers 7.12502
rthumb 16.6097 -80.2396
lclavicle -1.14301e-015 5.1684e-015
lhumerus -27.9612 9.64883 81.9173
lradius 15.154
lwrist -13.4514
lhand -21.9729 -13.0231
lfingers 7.12502
lthumb 4.43492 16.9104
rfemur -24.1277 8.46031 17.4758
rtibia 7.24721
rfoot -19.1643 -5.98598
rtoes -29.2532
lfemur -25.3387 -10.8074 -16.4664
ltibia 8.17394
lfoot -7.88816 1.57693
ltoes -31.1935
186
root 9.27689 16.3013 19.7582 -152.449 -2.6832 179.72
lowerback -31.6015 -2.0278 -5.62087
upperback -3.35435 -1.85544 0.0284576
thorax 12.7934 -1.59829 2.2222
lowerneck -6.03142 -5.4354 7.42552
upperneck 2.47971 -7.68241 -11.0062
head 0.992502 -4.10142 -4.66527
rclavicle 3.27995e-015 9.93923e-015
rhumerus -34.7506 -21.9594 -79.2312
rradius 25.2539
rwrist 4.14477
rhand -9.32398 -50.6856
rfingers 7.12502
rthumb 16.6346 -79.9928
lclavicle 3.27995e-015 9.93923e-015
lhumerus -28.0146 9.68489 81.8872
lradius 15.1493
lwrist -13.4625
lhand -21.9272 -13.099
lfingers 7.12502
lthumb 4.47904 16.8336
rfemur -24.1795 8.39787 17.4928
rtibia 7.30106
rfoot -19.1629 -5.94708
rtoes -29.7519
lfemur -25.36 -10.777 -16.468
ltibia 8.14907
lfoot -7.88511 1.57594
ltoes -31.6557
187
root 9.27756 16.3008 19.7601 -152.429 -2.65693 179.725
lowerback -31.5642 -2.00941 -5.59233
upperback -3.39452 -1.84892 0.000129966
thorax 12.7294 -1.59489 2.18026
lowerneck -6.03597 -5.45554 7.56497
upperneck 2.48543 -7.72003 -11.1403
head 0.980678 -4.12314 -4.72853
rclavicle 1.78906e-014 2.06736e-014
rhumerus -34.8408 -22.1372 -79.1679
rradius 25.2076
rwrist 4.35946
rhand -9.29457 -50.8061
rfingers 7.12502
rthumb 16.6629 -80.1109
lclavicle 1.78906e-014 2.06736e-014
lhumerus -28.1427 9.43157 81.9242
lradius 15.2929
lwrist -13.1187
lhand -21.9121 -13.0327
lfingers 7.12502
lthumb 4.49368 16.8997
rfemur -24.2123 8.4047 17.4836
rtibia 7.30829
rfoot -19.2043 -5.88479
rtoes -29.8481
lfemur -25.4029 -10.7289 -16.4718
ltibia 8.18867
lfoot -7.9155 1.55895
ltoes -30.9966
188
root 9.27793 16.3007 19.7614 -152.453 -2.68533 179.698
lowerback -31.5506 -2.02743 -5.6177
upperback -3.36844 -1.85565 -0.014137
thorax 12.7538 -1.59729 2.1762
lowerneck -6.1068 -5.46377 7.68477
upperneck 2.47453 -7.74653 -11.2605
head 0.977152 -4.14115 -4.7866
rclavicle 1.19271e-015 2.14687e-014
rhumerus -34.8648 -22.0319 -79.252
rradius 25.3276
rwrist 4.24698
rhand -9.29527 -51.1476
rfingers 7.12502
rthumb 16.6622 -80.4524
lclavicle 1.19271e-015 2.14687e-014
lhumerus -28.1135 9.28515 81.9761
lradius 15.3199
lwrist -12.787
lhand -22.031 -13.1072
lfingers 7.12502
lthumb 4.37882 16.8275
rfemur -24.1655 8.47567 17.4334
rtibia 7.2391
rfoot -19.2197 -5.95465
rtoes -30.0835
lfemur -25.3988 -10.7809 -16.4796
ltibia 8.22429
lfoot -7.91703 1.51896
ltoes -29.626
189
root 9.27849 16.3008 19.7621 -152.467 -2.69206 179.675
lowerback -31.6009 -2.04052 -5.68123
upperback -3.31332 -1.83789 -0.00130743
thorax 12.8381 -1.591 2.2293
lowerneck -6.22296 -5.46952 7.7343
upperneck 2.46971 -7.76836 -11.3487
head 0.987279 -4.15849 -4.82563
rclavicle -2.31087e-014 -7.95139e-015
rhumerus -34.7913 -21.9121 -79.3053
rradius 25.364
rwrist 4.07028
rhand -9.33547 -51.1081
rfingers 7.12502
rthumb 16.6235 -80.4162
lclavicle -2.31087e-014 -7.95139e-015
lhumerus -27.9709 9.33771 82.0481
lradius 15.2077
lwrist -12.547
lhand -22.2328 -13.2873
lfingers 7.12502
lthumb 4.18397 16.6513
rfemur -24.1154 8.53056 17.3944
rtibia 7.14757
rfoot -19.1489 -6.05111
rtoes -30.3251
lfemur -25.3815 -10.84 -16.4846
ltibia 8.2155
lfoot -7.8811 1.54143
ltoes -29.2143
